<mxfile host="app.diagrams.net" modified="2023-10-09T10:59:55.306Z" agent="Mozilla/5.0 (X11; Linux x86_64) AppleWebKit/537.36 (KHTML, like Gecko) Chrome/116.0.0.0 Safari/537.36" etag="nyJII-whwLoyaIe6j1EY" version="22.0.4" type="github">
  <diagram name="第 1 页" id="pOSDK7yILVoC8AeX07EB">
    <mxGraphModel dx="2261" dy="743" grid="1" gridSize="10" guides="1" tooltips="1" connect="1" arrows="1" fold="1" page="1" pageScale="1" pageWidth="827" pageHeight="1169" math="0" shadow="0">
      <root>
        <mxCell id="0" />
        <mxCell id="1" parent="0" />
        <mxCell id="BCu3Q3xe9jq5rhCb7yrI-8" style="edgeStyle=orthogonalEdgeStyle;rounded=0;orthogonalLoop=1;jettySize=auto;html=1;" edge="1" parent="1" source="BCu3Q3xe9jq5rhCb7yrI-1" target="BCu3Q3xe9jq5rhCb7yrI-3">
          <mxGeometry relative="1" as="geometry" />
        </mxCell>
        <mxCell id="BCu3Q3xe9jq5rhCb7yrI-1" value="开始" style="rounded=1;whiteSpace=wrap;html=1;fontSize=15;" vertex="1" parent="1">
          <mxGeometry x="320" y="120" width="120" height="60" as="geometry" />
        </mxCell>
        <mxCell id="BCu3Q3xe9jq5rhCb7yrI-9" style="edgeStyle=orthogonalEdgeStyle;rounded=0;orthogonalLoop=1;jettySize=auto;html=1;" edge="1" parent="1" source="BCu3Q3xe9jq5rhCb7yrI-3" target="BCu3Q3xe9jq5rhCb7yrI-5">
          <mxGeometry relative="1" as="geometry" />
        </mxCell>
        <mxCell id="BCu3Q3xe9jq5rhCb7yrI-3" value="点击上方拼版图标" style="rounded=1;whiteSpace=wrap;html=1;fontSize=15;" vertex="1" parent="1">
          <mxGeometry x="320" y="220" width="120" height="60" as="geometry" />
        </mxCell>
        <mxCell id="BCu3Q3xe9jq5rhCb7yrI-5" value="右键绘制框" style="rounded=1;whiteSpace=wrap;html=1;fontSize=15;" vertex="1" parent="1">
          <mxGeometry x="320" y="310" width="120" height="60" as="geometry" />
        </mxCell>
        <mxCell id="BCu3Q3xe9jq5rhCb7yrI-6" value="1. 将拼版和元件绑定的操作如果需要在osg那一层做，那么basicimagecontrol就需要记录当前绘制的是元件框还是拼版框，造成业务逻辑的下沉" style="rounded=1;whiteSpace=wrap;html=1;align=left;" vertex="1" parent="1">
          <mxGeometry x="-50" y="120" width="260" height="280" as="geometry" />
        </mxCell>
        <mxCell id="BCu3Q3xe9jq5rhCb7yrI-7" value="" style="shape=flexArrow;endArrow=classic;html=1;rounded=0;" edge="1" parent="1">
          <mxGeometry width="50" height="50" relative="1" as="geometry">
            <mxPoint x="240" y="290" as="sourcePoint" />
            <mxPoint x="310" y="340" as="targetPoint" />
          </mxGeometry>
        </mxCell>
      </root>
    </mxGraphModel>
  </diagram>
</mxfile>
